<svg xmlns="http://www.w3.org/2000/svg" xmlns:xlink="http://www.w3.org/1999/xlink" version="1.1" width="256" height="256" viewBox="0 0 256 256" xml:space="preserve">
<g style="stroke: none; stroke-width: 0; stroke-dasharray: none; stroke-linecap: butt; stroke-linejoin: miter; stroke-miterlimit: 10; fill: none; fill-rule: nonzero; opacity: 1;" transform="translate(1.4065934065934016 1.4065934065934016) scale(2.81 2.81)">
	<path d="M 7.739 68.392 C 3.476 61.614 1 53.598 1 45 C 1 20.699 20.699 1 45 1 s 44 19.699 44 44 S 69.301 89 45 89 c -8.598 0 -16.614 -2.476 -23.392 -6.739 L 1 89 L 7.739 68.392 z" style="stroke: none; stroke-width: 1; stroke-dasharray: none; stroke-linecap: butt; stroke-linejoin: miter; stroke-miterlimit: 10; fill: rgb(142,72,168); fill-rule: nonzero; opacity: 1;" transform=" matrix(1 0 0 1 0 0) " stroke-linecap="round"/>
	<path d="M 1 90 c -0.261 0 -0.517 -0.103 -0.707 -0.293 c -0.267 -0.267 -0.36 -0.66 -0.244 -1.018 l 6.595 -20.166 C 2.296 61.449 0 53.326 0 45 C 0 20.187 20.187 0 45 0 c 24.813 0 45 20.187 45 45 c 0 24.813 -20.187 45 -45 45 c -8.326 0 -16.449 -2.296 -23.524 -6.644 L 1.311 89.95 C 1.209 89.983 1.104 90 1 90 z M 21.608 81.261 c 0.187 0 0.371 0.052 0.533 0.153 C 28.989 85.723 36.894 88 45 88 c 23.71 0 43 -19.29 43 -43 C 88 21.29 68.71 2 45 2 C 21.29 2 2 21.29 2 45 c 0 8.106 2.277 16.011 6.585 22.859 c 0.159 0.251 0.197 0.561 0.104 0.843 L 2.563 87.437 l 18.734 -6.126 C 21.399 81.277 21.504 81.261 21.608 81.261 z" style="stroke: none; stroke-width: 1; stroke-dasharray: none; stroke-linecap: butt; stroke-linejoin: miter; stroke-miterlimit: 10; fill: rgb(0,0,0); fill-rule: nonzero; opacity: 1;" transform=" matrix(1 0 0 1 0 0) " stroke-linecap="round"/>
	<path d="M 50.264 45 c 0 2.907 -2.357 5.264 -5.264 5.264 S 39.736 47.907 39.736 45 c 0 -1.892 0.998 -3.551 2.497 -4.479 c 0.804 -0.498 1.752 -0.785 2.767 -0.785 C 47.907 39.736 50.264 42.093 50.264 45 z" style="stroke: none; stroke-width: 1; stroke-dasharray: none; stroke-linecap: butt; stroke-linejoin: miter; stroke-miterlimit: 10; fill: rgb(255,255,255); fill-rule: nonzero; opacity: 1;" transform=" matrix(1 0 0 1 0 0) " stroke-linecap="round"/>
	<path d="M 30.264 45 c 0 2.907 -2.357 5.264 -5.264 5.264 S 19.736 47.907 19.736 45 c 0 -1.892 0.998 -3.551 2.497 -4.479 c 0.804 -0.498 1.752 -0.785 2.767 -0.785 C 27.907 39.736 30.264 42.093 30.264 45 z" style="stroke: none; stroke-width: 1; stroke-dasharray: none; stroke-linecap: butt; stroke-linejoin: miter; stroke-miterlimit: 10; fill: rgb(255,255,255); fill-rule: nonzero; opacity: 1;" transform=" matrix(1 0 0 1 0 0) " stroke-linecap="round"/>
	<path d="M 70.264 45 c 0 2.907 -2.357 5.264 -5.264 5.264 c -2.907 0 -5.264 -2.357 -5.264 -5.264 c 0 -1.892 0.998 -3.551 2.497 -4.479 c 0.804 -0.498 1.752 -0.785 2.767 -0.785 C 67.907 39.736 70.264 42.093 70.264 45 z" style="stroke: none; stroke-width: 1; stroke-dasharray: none; stroke-linecap: butt; stroke-linejoin: miter; stroke-miterlimit: 10; fill: rgb(255,255,255); fill-rule: nonzero; opacity: 1;" transform=" matrix(1 0 0 1 0 0) " stroke-linecap="round"/>
	<path d="M 45 51.264 c -3.454 0 -6.264 -2.81 -6.264 -6.264 c 0 -2.186 1.11 -4.178 2.97 -5.329 c 0.988 -0.611 2.127 -0.935 3.293 -0.935 c 3.454 0 6.264 2.81 6.264 6.264 C 51.264 48.454 48.454 51.264 45 51.264 z M 45 40.736 c -0.794 0 -1.569 0.22 -2.241 0.635 c -1.267 0.784 -2.023 2.141 -2.023 3.628 c 0 2.351 1.913 4.264 4.264 4.264 c 2.351 0 4.264 -1.913 4.264 -4.264 C 49.264 42.649 47.351 40.736 45 40.736 z" style="stroke: none; stroke-width: 1; stroke-dasharray: none; stroke-linecap: butt; stroke-linejoin: miter; stroke-miterlimit: 10; fill: rgb(0,0,0); fill-rule: nonzero; opacity: 1;" transform=" matrix(1 0 0 1 0 0) " stroke-linecap="round"/>
	<path d="M 25 51.264 c -3.454 0 -6.264 -2.81 -6.264 -6.264 c 0 -2.186 1.11 -4.178 2.97 -5.329 c 0.988 -0.611 2.127 -0.935 3.293 -0.935 c 3.454 0 6.264 2.81 6.264 6.264 C 31.264 48.454 28.454 51.264 25 51.264 z M 25 40.736 c -0.794 0 -1.569 0.22 -2.241 0.635 c -1.267 0.784 -2.023 2.141 -2.023 3.628 c 0 2.351 1.913 4.264 4.264 4.264 s 4.264 -1.913 4.264 -4.264 C 29.264 42.649 27.351 40.736 25 40.736 z" style="stroke: none; stroke-width: 1; stroke-dasharray: none; stroke-linecap: butt; stroke-linejoin: miter; stroke-miterlimit: 10; fill: rgb(0,0,0); fill-rule: nonzero; opacity: 1;" transform=" matrix(1 0 0 1 0 0) " stroke-linecap="round"/>
	<path d="M 65 51.264 c -3.454 0 -6.264 -2.81 -6.264 -6.264 c 0 -2.186 1.11 -4.178 2.971 -5.329 c 0.987 -0.611 2.126 -0.935 3.293 -0.935 c 3.454 0 6.264 2.81 6.264 6.264 C 71.264 48.454 68.454 51.264 65 51.264 z M 65 40.736 c -0.795 0 -1.569 0.22 -2.24 0.635 c -1.267 0.784 -2.023 2.141 -2.023 3.629 c 0 2.351 1.913 4.264 4.264 4.264 s 4.264 -1.913 4.264 -4.264 C 69.264 42.649 67.351 40.736 65 40.736 z" style="stroke: none; stroke-width: 1; stroke-dasharray: none; stroke-linecap: butt; stroke-linejoin: miter; stroke-miterlimit: 10; fill: rgb(0,0,0); fill-rule: nonzero; opacity: 1;" transform=" matrix(1 0 0 1 0 0) " stroke-linecap="round"/>
</g>
</svg>