<?xml version="1.0" encoding="UTF-8"?>
<svg id="Layer_1" xmlns="http://www.w3.org/2000/svg" version="1.1" viewBox="0 0 1000 1000">
  <!-- Generator: Adobe Illustrator 29.4.0, SVG Export Plug-In . SVG Version: 2.1.0 Build 152)  -->
  <defs>
    <style>
      .st0 {
        fill: #ff3366;
      }
    </style>
  </defs>
  <path class="st0" d="M198.59,380.69v115.84c0,4.98,5.85,7.59,9.61,4.31,13.78-12.03,37.1-25.09,77-25.09,65.91,0,102.92,37.6,102.92,110.41v154.52c0,3.19-2.58,5.77-5.77,5.77h-101.06c-3.19,0-5.77-2.58-5.77-5.77v-145.84c0-26.23-6.84-43.65-34.27-43.65-29.35,0-42.33,22.29-42.33,61.54v127.96c0,3.19-2.58,5.77-5.77,5.77h-100.23c-3.19,0-5.77-2.58-5.77-5.77v-359.99c0-3.19,2.58-5.77,5.77-5.77h99.9c3.19,0,5.77,2.58,5.77,5.77Z"/>
  <path class="st0" d="M426.82,456.61h100.23c3.19,0,5.77,2.58,5.77,5.77v278.3c0,3.19-2.58,5.77-5.77,5.77h-100.23c-3.19,0-5.77-2.58-5.77-5.77v-278.3c0-3.19,2.58-5.77,5.77-5.77Z"/>
  <path class="st0" d="M704.55,571.04c22.07-32.13,50.58-82.44,73.56-112.17,1.1-1.42,2.79-2.26,4.58-2.26h113.06c4.85,0,7.53,5.61,4.5,9.39l-90.5,112.56c-1.53,1.9-1.7,4.55-.43,6.63,15.92,26.01,81.8,119.59,102.63,152.42,2.44,3.84-.33,8.85-4.88,8.85h-118.61c-2.25,0-4.29-1.32-5.23-3.37-7.36-15.92-40.89-72.34-51.76-92.51-1.79-3.33-6.24-4.06-9.01-1.48l-26.59,24.71c-1.17,1.09-1.84,2.62-1.84,4.23v62.65c0,3.19-2.58,5.77-5.77,5.77h-100.23c-3.19,0-5.77-2.58-5.77-5.77v-278.3c0-3.19,2.58-5.77,5.77-5.77h100.23c3.19,0,5.77,2.58,5.77,5.77v105.38c0,5.66,7.31,7.95,10.52,3.28Z"/>
  <path class="st0" d="M551.9,340.15c0,47.83-38.78,86.61-86.61,86.61s-86.61-38.78-86.61-86.61,38.78-86.61,86.61-86.61,86.61,38.78,86.61,86.61ZM499.19,361.92l-20.14-20.14c-.9-.9-.9-2.36,0-3.26l20.14-20.14c.9-.9.9-2.36,0-3.26l-8.86-8.86c-.9-.9-2.36-.9-3.26,0l-20.14,20.14c-.9.9-2.36.9-3.26,0l-20.14-20.14c-.9-.9-2.36-.9-3.26,0l-8.86,8.86c-.9.9-.9,2.36,0,3.26l20.14,20.14c.9.9.9,2.36,0,3.26l-20.14,20.14c-.9.9-.9,2.36,0,3.26l8.86,8.86c.9.9,2.36.9,3.26,0l20.14-20.14c.9-.9,2.36-.9,3.26,0l20.14,20.14c.9.9,2.36.9,3.26,0l8.86-8.86c.9-.9.9-2.36,0-3.26Z"/>
  <path class="st0" d="M747.55,340.15c0,47.83-38.78,86.61-86.61,86.61s-86.61-38.78-86.61-86.61,38.78-86.61,86.61-86.61,86.61,38.78,86.61,86.61ZM694.84,361.92l-20.14-20.14c-.9-.9-.9-2.36,0-3.26l20.14-20.14c.9-.9.9-2.36,0-3.26l-8.86-8.86c-.9-.9-2.36-.9-3.26,0l-20.14,20.14c-.9.9-2.36.9-3.26,0l-20.14-20.14c-.9-.9-2.36-.9-3.26,0l-8.86,8.86c-.9.9-.9,2.36,0,3.26l20.14,20.14c.9.9.9,2.36,0,3.26l-20.14,20.14c-.9.9-.9,2.36,0,3.26l8.86,8.86c.9.9,2.36.9,3.26,0l20.14-20.14c.9-.9,2.36-.9,3.26,0l20.14,20.14c.9.9,2.36.9,3.26,0l8.86-8.86c.9-.9.9-2.36,0-3.26Z"/>
</svg>